<svg xmlns="http://www.w3.org/2000/svg" viewBox="0 0 500 500"><title>30. Social Media</title><g id="Layer_14" data-name="Layer 14"><circle cx="101.33" cy="141.51" r="31.53" fill="#3fe2fd"/><circle cx="144.4" cy="143.2" r="31.53" fill="#3fe2fd"/><polygon points="79.08 172.2 119.63 201.76 162.71 173.04 147.5 153.61 124.7 149.39 79.08 172.2" fill="#3fe2fd"/><polygon points="231.97 230.48 234.5 276.94 185.51 279.47 172 257.51 172.84 239.77 182.98 228.79 231.97 230.48" fill="#3fe2fd"/><path d="M352.36,229.21a150.26,150.26,0,0,1,.77,18.38,424.3,424.3,0,0,1-3.35,50.76c-.78,6.11-1.76,12.42-5.1,17.59-6.7,10.38-20,8.38-30.3,5.9L263,309.47c-2.17-.52-4.64-1-6.48.27-2.2,1.52-2.31,4.68-2.2,7.36l1,24.82c.1,2.53.16,5.25-1.22,7.37-2.12,3.24-6.57,3.74-10.43,3.92l-14.2.66c-2.89.14-5.91.25-8.52-1s-4.63-4.26-3.71-7c1-3.06,4.9-4.06,8.12-3.86s6.56,1.12,9.59,0c6-2.17,6.81-10.1,6.64-16.43l-1-39.11c-.07-2.54.07-5.52,2.14-7a7.49,7.49,0,0,1,4.18-1,92.12,92.12,0,0,1,57.91,18.55c3,2.3,6,4.85,9.7,5.85,6.46,1.76,13.46-1.95,17.39-7.37s5.39-12.23,6.36-18.86a165.86,165.86,0,0,0,.46-45.66c-1.81-13.6-8.12-25.78-9.11-39.84,9.75,4.57,16.48,14.15,19.83,24.39A70.07,70.07,0,0,1,352.36,229.21Z" fill="#3fe2fd"/><path d="M150.32,381.68s-10.14,65.32,27,66.45,196,4.5,196,4.5L353,471.78l-202.72,5.63s-31.54-27-30.41-39.42,3.38-51.81,3.38-51.81Z" fill="#3fe2fd"/><rect x="120.47" y="187.4" width="30.41" height="116.57" fill="#3fe2fd"/></g><g id="Layer_11" data-name="Layer 11"><path d="M129.53,426.09a7.49,7.49,0,0,1-1.17-.1v12.6a28,28,0,0,0,27.92,27.92H343.66a28,28,0,0,0,27.92-27.92v-12.5Z" fill="none"/><path d="M143,102a42.44,42.44,0,0,1,30.63,71.82c-.51.54-1.08,1.11-1.71,1.69a5.63,5.63,0,0,1-.45.38l-4.94,3.85a6.42,6.42,0,0,1-.53.38l-37.67,24.13v86a49.82,49.82,0,0,1,0,99.63V412.2a6.45,6.45,0,0,1,1.17-.11H371.58V206.71a49.82,49.82,0,0,1,0-98.66V61.41a28,28,0,0,0-27.92-27.92H310.61a35.76,35.76,0,0,1-35.61,33H220.06a35.76,35.76,0,0,1-35.6-33H156.28a28,28,0,0,0-27.92,27.92v43.17A42.18,42.18,0,0,1,143,102ZM229.3,217.82l.21,0,.42,0a7.48,7.48,0,0,1,1.95.14,159,159,0,0,0,16.5-7.75c19.78-10.67,35.27-26.49,44.53-35.94,7.47-7.63,10.77-11,15.59-9.66l.14,0,.31.08.21.05c10.44,2.16,23.4,12,31,69.1,5.6,42.15,2.83,69.14-8,78a12.25,12.25,0,0,1-7.75,3,10.36,10.36,0,0,1-2.91-.43l-.17-.05-.21-.06c-1.88-.64-4.47-2.09-10.14-5.31-11-6.24-31.47-17.84-46.1-20.63a139.36,139.36,0,0,0-22.51-2l2.8,52.15a7,7,0,0,1-6.44,7.36L210,348.11a4.87,4.87,0,0,1-.54,0,7,7,0,0,1-7-6.55l-3.41-52.8-3.09.14a20.48,20.48,0,0,1-2.8.19,22.49,22.49,0,0,1-21.87-18.76l-3.69-19.8v0c-2.29-12.39,5.55-24.49,17.49-27l.51-.09Z" fill="none"/><path d="M220.06,52.48H275a21.76,21.76,0,0,0,21.38-17.85H198.69A21.75,21.75,0,0,0,220.06,52.48Z" fill="none"/><path d="M167.59,250.53v0l3.69,19.8a22.49,22.49,0,0,0,21.87,18.76,20.48,20.48,0,0,0,2.8-.19l3.09-.14,3.41,52.8a7,7,0,0,0,7,6.55,4.87,4.87,0,0,0,.54,0l28.72-2.25a7,7,0,0,0,6.44-7.36l-2.8-52.15a139.36,139.36,0,0,1,22.51,2C279.49,291.15,300,302.75,311,309c5.67,3.22,8.26,4.67,10.14,5.31l.21.06.17.05a10.36,10.36,0,0,0,2.91.43,12.25,12.25,0,0,0,7.75-3c10.82-8.9,13.59-35.89,8-78-7.57-57.13-20.53-66.94-31-69.1l-.21-.05-.31-.08-.14,0c-4.82-1.32-8.12,2-15.59,9.66-9.26,9.45-24.75,25.27-44.53,35.94a159,159,0,0,1-16.5,7.75,7.48,7.48,0,0,0-1.95-.14l-.42,0-.21,0-43.71,5.66-.51.09C173.14,226,165.3,238.14,167.59,250.53Zm143.3-.2-2.62-17.55c2.38-.25,5.4.72,6.39,6.63S312.93,248.73,310.89,250.33Zm1.13,7.51Zm-3.67-25.08h-.08l-1-6.92Zm17.58,63.33a272.24,272.24,0,0,1-11.27-32.23l.17.39a24.81,24.81,0,0,0,13-15C330.42,276.62,328.12,289.91,325.93,296.09ZM307.2,218.81c-.16-4-.17-7.58-.08-10.86a114.85,114.85,0,0,1,3.69-26.56,25.85,25.85,0,0,1,2.28,3.32c3.44,5.86,8.18,18,12.05,43.15A19.07,19.07,0,0,0,307.2,218.81Zm2,73.14c-12.29-6.75-28.27-14.78-41.72-17.34a152.74,152.74,0,0,0-24.79-2.26L239,230.11a173.67,173.67,0,0,0,16-7.64c16.2-8.74,29.48-20.34,39.25-29.82C291.49,213.4,292,247,309.19,292Zm-80.8-4.5,2.42,45L216,333.6,213,288.15Zm-3.23-55,3.56,41L195,275c-.24,0-.47,0-.71.07-4.32.63-8.38-2.53-9.24-7.21L181.36,248c-.9-4.88,1.93-9.61,6.34-10.65Z" fill="#251ac7"/><path d="M428.38,157.38a49.89,49.89,0,0,0-42.8-49.32V61.41a42,42,0,0,0-41.92-41.92H156.28a42,42,0,0,0-41.92,41.92v42.43A42.45,42.45,0,0,0,78.76,180l35.6,24.66V292a49.82,49.82,0,0,0,0,96v50.61a42,42,0,0,0,41.92,41.92H343.66a42,42,0,0,0,41.92-41.92V420a6.54,6.54,0,0,0,.06-.89,6.65,6.65,0,0,0-.06-.89V206.71A49.9,49.9,0,0,0,428.38,157.38Zm-49.83-35.82a35.83,35.83,0,1,1-35.83,35.82A35.86,35.86,0,0,1,378.55,121.56ZM296.38,34.63A21.76,21.76,0,0,1,275,52.48H220.06a21.75,21.75,0,0,1-21.37-17.85Zm-140.1-1.14h28.18a35.76,35.76,0,0,0,35.6,33H275a35.76,35.76,0,0,0,35.61-33h33.05a28,28,0,0,1,27.92,27.92v46.64a49.82,49.82,0,0,0,0,98.66V412.09h-242a6.45,6.45,0,0,0-1.17.11V389.82a49.82,49.82,0,0,0,0-99.63v-86L166,180.08a6.42,6.42,0,0,0,.53-.38l4.94-3.85a5.63,5.63,0,0,0,.45-.38c.63-.58,1.2-1.15,1.71-1.69a42.44,42.44,0,0,0-45.3-69.2V61.41A28,28,0,0,1,156.28,33.49ZM127.79,304.18A35.83,35.83,0,1,1,92,340,35.87,35.87,0,0,1,127.79,304.18ZM86.45,168.32a28.44,28.44,0,1,1,31.91-47.07,7,7,0,0,0,8.16,0A28.14,28.14,0,0,1,143,116a28.45,28.45,0,0,1,20.5,48.17c-.29.3-.58.59-.89.88l-4.43,3.46L121,192.28l-34.4-23.83ZM343.66,466.51H156.28a28,28,0,0,1-27.92-27.92V426a7.49,7.49,0,0,0,1.17.1H371.58v12.5A28,28,0,0,1,343.66,466.51Z" fill="#251ac7"/><path d="M359.88,166.74a7,7,0,0,0,9.22,10.54,20,20,0,0,1,6.75-3.41c5.28-1.47,10.15-.22,14.87,3.83a7,7,0,1,0,9.11-10.63C383.72,153.26,366.65,160.82,359.88,166.74Z" fill="#251ac7"/><path d="M364.12,149.91h.32a7,7,0,0,0,0-14h-.32a7,7,0,0,0,0,14Z" fill="#251ac7"/><path d="M389.08,150.2h.33a7,7,0,0,0,0-14h-.33a7,7,0,0,0,0,14Z" fill="#251ac7"/><path d="M108.42,344.35a7,7,0,0,0,.75,9.87C115.89,360,122.76,362,129,362a31.85,31.85,0,0,0,20.13-7.48A7,7,0,1,0,139.91,344a20.22,20.22,0,0,1-6.75,3.4c-5.29,1.48-10.15.22-14.87-3.82A7,7,0,0,0,108.42,344.35Z" fill="#251ac7"/><path d="M113.68,318.54h-.32a7,7,0,0,0,0,14h.32a7,7,0,0,0,0-14Z" fill="#251ac7"/><path d="M138.32,332.82h.33a7,7,0,1,0,0-14h-.33a7,7,0,0,0,0,14Z" fill="#251ac7"/></g></svg>